<?xml version="1.0" encoding="UTF-8" standalone="no"?>
<svg
   width="104.6164mm"
   height="17.596178mm"
   viewBox="0 0 104.6164 17.596178"
   version="1.1"
   id="svg1116"
   sodipodi:docname="logo.svg"
   inkscape:version="1.1 (c68e22c387, 2021-05-23)"
   xmlns:inkscape="http://www.inkscape.org/namespaces/inkscape"
   xmlns:sodipodi="http://sodipodi.sourceforge.net/DTD/sodipodi-0.dtd"
   xmlns="http://www.w3.org/2000/svg"
   xmlns:svg="http://www.w3.org/2000/svg"
   xmlns:rdf="http://www.w3.org/1999/02/22-rdf-syntax-ns#"
   xmlns:cc="http://creativecommons.org/ns#"
   xmlns:dc="http://purl.org/dc/elements/1.1/">
  <sodipodi:namedview
     id="namedview16"
     pagecolor="#505050"
     bordercolor="#eeeeee"
     borderopacity="1"
     inkscape:pageshadow="0"
     inkscape:pageopacity="0"
     inkscape:pagecheckerboard="0"
     inkscape:document-units="mm"
     showgrid="false"
     inkscape:zoom="1.5832046"
     inkscape:cx="195.17377"
     inkscape:cy="81.164495"
     inkscape:window-width="1920"
     inkscape:window-height="1001"
     inkscape:window-x="-9"
     inkscape:window-y="-9"
     inkscape:window-maximized="1"
     inkscape:current-layer="layer1" />
  <defs
     id="defs1110" />
  <metadata
     id="metadata1113">
    <rdf:RDF>
      <cc:Work
         rdf:about="">
        <dc:format>image/svg+xml</dc:format>
        <dc:type
           rdf:resource="http://purl.org/dc/dcmitype/StillImage" />
        <dc:title />
      </cc:Work>
    </rdf:RDF>
  </metadata>
  <g
     id="layer1"
     transform="translate(-19.21512,-88.719765)">
    <g
       aria-label="4"
       transform="scale(1.0573527,0.94575821)"
       id="text1074"
       style="font-size:8.71964px;line-height:1.25;fill:#f1dc1b;stroke-width:0.499999">
      <path
         d="m 74.95419,107.8937 v 4.47053 h -4.470532 v -4.47053 z m -10.857007,-1.91595 7.025122,-11.495652 h 5.10918 l -4.291711,7.025122 h 4.291711 v 4.47053 z"
         style="font-size:26.159px;font-family:Horizon;-inkscape-font-specification:Horizon"
         id="path18" />
    </g>
    <g
       aria-label="nk"
       transform="scale(0.95450068,1.0476682)"
       id="text1078"
       style="font-size:11.0878px;line-height:1.25;letter-spacing:0.79375px;fill:#f1dc1b;stroke-width:0.499999">
      <path
         d="m 46.446156,88.870612 h -4.13944 v 12.495938 h 4.13944 v -7.450995 c 0.698531,-0.879631 1.500547,-1.422933 2.457793,-1.422933 1.190089,0 1.448804,0.569173 1.448804,2.095592 v 6.778336 h 4.13944 v -7.942554 c 0,-3.363295 -1.267704,-4.786227 -3.932468,-4.786227 -1.526419,0 -2.794122,0.672659 -4.113569,1.862748 z"
         style="font-size:25.8715px;font-family:Gentona;-inkscape-font-specification:Gentona"
         id="path21" />
      <path
         d="m 70.317277,88.870612 h -4.630998 l -4.061826,4.346412 v -8.537595 h -4.13944 v 16.687121 h 4.13944 v -2.742382 l 1.241832,-1.37119 2.92348,4.113572 h 4.630998 v -0.28459 l -4.83797,-6.881819 4.734484,-5.044942 z"
         style="font-size:25.8715px;font-family:Gentona;-inkscape-font-specification:Gentona"
         id="path23" />
    </g>
    <g
       aria-label="Fun"
       transform="scale(0.95450068,1.0476682)"
       id="text1082"
       style="font-size:11.0878px;line-height:1.25;letter-spacing:0.79375px;fill:#f1dc1b;stroke-width:0.499999">
      <path
         d="m 92.004375,92.501229 v -3.208066 h 7.218149 V 85.464181 H 87.787321 V 101.2458 h 4.217054 v -5.122561 h 6.20916 v -3.62201 z"
         style="font-size:25.8715px;font-family:Gentona;-inkscape-font-specification:Gentona"
         id="path26" />
      <path
         d="m 109.5628,101.2458 h 4.13944 V 88.749862 h -4.13944 v 7.528606 c -0.69853,0.879631 -1.52642,1.448804 -2.48366,1.448804 -1.16422,0 -1.44881,-0.595044 -1.44881,-2.121463 v -6.855947 h -4.13944 v 7.916679 c 0,3.389169 1.42293,4.812099 4.06183,4.812099 1.52642,0 2.43192,-0.67266 4.01008,-1.707519 z"
         style="font-size:25.8715px;font-family:Gentona;-inkscape-font-specification:Gentona"
         id="path28" />
      <path
         d="M 121.22254,88.749862 H 117.0831 V 101.2458 h 4.13944 v -7.450996 c 0.69853,-0.879631 1.50054,-1.422932 2.45779,-1.422932 1.19009,0 1.4488,0.569173 1.4488,2.095591 v 6.778337 h 4.13944 v -7.942554 c 0,-3.363295 -1.2677,-4.786228 -3.93246,-4.786228 -1.52642,0 -2.79413,0.672659 -4.11357,1.862748 z"
         style="font-size:25.8715px;font-family:Gentona;-inkscape-font-specification:Gentona"
         id="path30" />
    </g>
    <path
       id="rect1084"
       style="fill:#f1dc1b;stroke-width:0.499999;stroke-linecap:square;paint-order:markers fill stroke"
       d="m 32.963005,88.719765 h 4.66083 v 4.147768 h -4.66083 z" />
    <g
       aria-label="L"
       transform="scale(0.95450068,1.0476682)"
       id="text1088"
       style="font-size:11.0878px;line-height:1.25;letter-spacing:0.79375px;fill:#f1dc1b;stroke-width:0.499999">
      <path
         d="M 31.618017,101.36655 V 97.537565 H 24.580969 V 85.584932 h -4.217055 v 15.781618 z"
         style="font-size:25.8715px;font-family:Gentona;-inkscape-font-specification:Gentona"
         id="path34" />
    </g>
    <path
       id="rect1090"
       style="fill:#f1dc1b;stroke-width:0.499999;stroke-linecap:square"
       d="m 33.002308,95.210701 h 4.664944 v 11.041939 h -4.664944 z" />
  </g>
</svg>
